<?xml version="1.0" encoding="utf-8"?><svg xmlns="http://www.w3.org/2000/svg" xmlns:xlink="http://www.w3.org/1999/xlink" width="1203" height="285" preserveAspectRatio="xMidYMid" viewBox="0 0 1203 285" style="z-index:1;shape-rendering:crispedges;margin-right:-2px;display:block;background-repeat-y:initial;background-repeat-x:initial;animation-play-state:paused" ><g transform="translate(601.5,142.5) scale(1,-1) translate(-601.5,-142.5)" style="transform:matrix(1, 0, 0, -1, 0, 285);animation-play-state:paused" ><linearGradient id="lg-0.032783228458917124" x1="0" x2="1" y1="0" y2="0" style="animation-play-state:paused" ><stop stop-color="#ff727d" offset="0" style="animation-play-state:paused" ></stop>

  
<stop stop-color="#b87cd1" offset="1" style="animation-play-state:paused" ></stop></linearGradient>
<path d="M 0 0 L 0 255.375 Q 120.3 241.455 240.6 208.901 T 481.2 188.88 T 721.8 176.461 T 962.4 112.612 T 1203 66.7071 L 1203 0 Z" fill="url(#lg-0.032783228458917124)" opacity="0.53" style="opacity:0.53;animation-play-state:paused" ></path>
<path d="M 0 0 L 0 259.719 Q 120.3 233.362 240.6 208.671 T 481.2 199.407 T 721.8 144.884 T 962.4 131.373 T 1203 108.556 L 1203 0 Z" fill="url(#lg-0.032783228458917124)" opacity="0.53" style="opacity:0.53;animation-play-state:paused" ></path>
<path d="M 0 0 L 0 278.985 Q 120.3 263.509 240.6 229.401 T 481.2 181.623 T 721.8 131.184 T 962.4 115.576 T 1203 70.2311 L 1203 0 Z" fill="url(#lg-0.032783228458917124)" opacity="0.53" style="opacity:0.53;animation-play-state:paused" ></path>
<path d="M 0 0 L 0 288.394 Q 120.3 258.89 240.6 239.059 T 481.2 216.756 T 721.8 127.319 T 962.4 137.307 T 1203 96.3509 L 1203 0 Z" fill="url(#lg-0.032783228458917124)" opacity="0.53" style="opacity:0.53;animation-play-state:paused" ></path></g></svg>